<svg xmlns="http://www.w3.org/2000/svg" viewBox="0 0 1000 473.4"  xmlns:v="https://vecta.io/nano"><style><![CDATA[.H{fill:#fcc41e}.I{opacity:.4}.J{fill:#fdd866}.K{fill:#b29d5d}]]></style><g class="H"><path d="M443.4 327.6S120.2 269.4 61 187.9C122.5 258 441.7 309 441.7 309c-.2 10.6 1.7 18.6 1.7 18.6zm13.1-58.6c-4.7 4.6-8 9.9-10.2 15.4-307.4-42.2-368.8-87.8-382-115.4-12.9-26.9 33.7-57.1 36.3-58.7h.1c7.2-3.7 15-7.3 23.4-10.7-30.2 13.9-50.2 30.1-50.2 48.7 0 77 382.6 120.7 382.6 120.7z" class="I"/><path d="M446.3 284.4c-3.5 8.3-4.6 17.1-4.6 24.5 0 0-319.2-50.9-380.8-121l-.1-.1c-4.5-6.2-7.4-12.5-8.6-18.9-4.1-22.4 15.8-41.9 48.3-58.6-2.6 1.7-49.1 31.9-36.3 58.7 13.3 27.6 74.7 73.2 382.1 115.4z" opacity=".6"/><path d="M73.4 127.4c-3.1 2.3-6 4.9-8.5 7.8-2.6 2.8-4.9 5.9-6.8 9.2-3.8 6.6-5.8 14.2-5.2 21.8.2 3.8 1.1 7.5 2.3 11.1 1.3 3.6 3 7 4.9 10.3.9 1.7 2.1 3.2 3.1 4.8 1.2 1.5 2.3 3.1 3.5 4.6s2.4 3 3.7 4.4l3.9 4.3c-5.8-5.1-11.1-10.8-15.3-17.5-1-1.7-2.1-3.3-2.9-5.1-.9-1.7-1.6-3.6-2.4-5.4-1.3-3.7-2.2-7.6-2.5-11.5-.5-7.9 1.7-15.9 5.8-22.5s9.8-12.2 16.4-16.3z"/></g><path d="M488 146.1s-12-13.8-47.8-12.6-60.4.3-75.4-28.8c-13.2 64.3-72.4 57.4-92.9 51.7 0 0 6.3 28.1 21.9 49 15.6 21 43.9 37.5 78.7 36 34.9-1.5 75.2-4.4 99.6 26.2-9.1-22.9-29.5-71.3 15.9-121.5z" fill="#73b235"/><path d="M456.5 269s24.8 50.3 89.7 50.3 112.4-67.9 112.4-67.9 29 120.8-108.2 120.8c-127.1-.1-126.3-83.2-93.9-103.2z"/><circle cx="546.7" cy="207.6" r="95.7"/><path d="M606.6 231.5c-9.5 23.8-32.7 40.5-59.9 40.5-27.1 0-50.4-16.8-59.9-40.5h119.8zm-18.7-77.7l8.5 19.6 21.4 2.1-16.1 14.1 4.7 20.9-18.5-10.8-18.4 10.8 4.6-20.9-16-14.1 21.3-2.1z" fill="#fff"/><path d="M430.9 268l.3 6.9 6.1 3.1-6.4 2.4-1 6.7-4.3-5.3-6.8 1.1 3.8-5.7-3.1-6.1 6.6 1.8zm-130.2-24.7l2.1 6.5 6.7 1.3-5.5 4.1.8 6.8-5.5-4.1-6.3 2.9 2.2-6.5-4.7-5h6.9zm75.9 46.3l-2 6.4 4.6 4.8-6.7.1-3.1 5.9-2.2-6.3-6.6-1.2 5.4-4-1-6.7 5.5 3.9zm18.5-15.6l-.9 4.1 3.2 2.8-4.3.5-1.6 3.9-1.7-3.9-4.3-.4 3.2-2.8-.9-4.2 3.6 2.2zm-72.3 9l-.9 4.1 3.2 2.8-4.3.5-1.6 3.9-1.8-3.9-4.2-.4 3.2-2.8-1-4.2 3.7 2.2zm26.6-34l-.6 2.3 1.8 1.5-2.3.3-1 2.2-.9-2.2-2.4-.2 1.8-1.6-.5-2.3 2 1.2zm-89.9 39.9l-.5 2.3 1.8 1.6-2.4.2-.9 2.2-1-2.2-2.4-.2 1.8-1.6-.5-2.3 2 1.2zm-27.9-39.1l-.9 2.2 1.5 1.9-2.3-.2-1.3 2-.6-2.3-2.3-.6 2-1.3-.1-2.3 1.8 1.5zm-62.5-52.1l-.9 2.2 1.5 1.8-2.3-.1-1.3 2-.6-2.3-2.3-.6 2-1.3-.1-2.4 1.8 1.6zm170.9 114l-.5 2.4 1.8 1.5-2.4.3-.9 2.1-1-2.1-2.3-.3 1.7-1.5-.5-2.3 2.1 1.2z" class="H"/><path d="M489.2 183.6h37.7v12.8h-37.7z" fill="#73b235"/><path d="M831.7 195.8l-1.3 3.3-8.8 4.6 7.9-2.6-46.1 112.2-21.5-25.5-1.4 3.4 19.5 30.3-15 36.5-.7 1.6-15.4-40-5.5 13.4 6.2 38.1c-4.3 1-8.9.7-13.3-1.1l-44.5-18.3 7.6-30.3-10-4.1-14.4 27.4-17.4-7.2 14.7-27.3-4.5-1.8-19 25.6-26-10.7c-11.3-4.6-16.6-17.5-12-28.8l47-114.1 21.9 24.5.9-2.3-20.7-27.4 13.9-33.9 42.5 69 1.5.6-38-84.2 14.6-35.6c4.6-11.3 17.5-16.6 28.8-12l3.9 1.6L738 194.3l7-106.2 54.4 22.4c.9.4 1.7.8 2.4 1.3l-32 62.3 38.6-50.8 9.8 26.5-55.4 74.8 60.5-61 8.5 23c1.2 2.9 1.1 6.2-.1 9.2z" class="H"/><path d="M782.6 237.6l-22.1 53.5-17.1 41.8-2.4 5.6-41.6-17.1-10.1-4.2-21.4-8.8-26.3-10.8 41.5-100.9 34.7 14.3h.1z" fill="#fff"/><path d="M672.3 310.2l-14.7 27.4-8.8-3.6 19.1-25.6z" class="J"/><path d="M648.8 334l8.8 3.6-44 81.6-25.3-4zm38.9-52.2l-15.4 28.4-4.4-1.8z" class="I H"/><path d="M699.4 321.4l-7.6 30.2-16.8-6.9 14.3-27.5z" class="J"/><path d="M675 344.7l16.8 6.9-7.6 30.5h-28.6zm35.6-68.4l-11.2 45.1-10.1-4.2z" class="I H"/><path d="M764.3 359.5c-3 6-8.5 10.1-14.7 11.5l-6.2-38.1 5.5-13.4 15.4 40z" class="J"/><path d="M735.6 285l13.3 34.5-5.5 13.4zm40.5 105.2l-22.2 7.5-4.3-26.7c6.2-1.4 11.7-5.5 14.7-11.5l11.8 30.7z" class="I H"/><path d="M779.1 308.2c-1.7 1.2-3.3 2.7-4.7 4.6l-13.9-21.7 1.4-3.4 17.2 20.5z" class="J"/><path d="M747 270l14.9 17.7-1.4 3.4zm104.3 123.8l-12.6 18.9-39-60.7c3.7-.4 8.7-1.1 14.2-2.6l37.4 44.4z" class="I H"/><path d="M813.9 349.4c-5.6 1.5-10.5 2.3-14.2 2.6l-25.3-39.3c1.4-1.9 3-3.4 4.7-4.6l4.3 5.1 30.5 36.2z" class="K"/><path d="M780 321.4l19.6 30.6-5.4.3c-5.6 0-26.2-5.5-24.2-27.2.5-5.3 2.2-9.3 4.4-12.3l5.6 8.6zm-.9-13.2c6.9-4.9 15.1-4.9 15.1-4.9l48 31.6c-9.2 7.8-19.6 12.2-28.4 14.6l-30.5-36.2-4.2-5.1zm87.8-43.5l-61.9-11s-19.9-6-19.9-26.7c-.1-38.9 76.7-31.1 81.8 37.7z"/><path d="M867.2 272c0 26-7.4 43.6-17.6 55.5l-55.3-24.3s-19.9-7.9-15.3-29.9c4.4-20.9 26-19.5 26-19.5l62.2 15.8v2.4z"/><path d="M849.6 327.6c-2.3 2.7-4.8 5.1-7.3 7.3l-48-31.6 55.3 24.3z" class="K"/><path d="M869 336.1l-7.4 11.4-19.3-12.7c2.5-2.1 5-4.6 7.3-7.3l19.4 8.6z" class="H I"/><path d="M867.1 269.6L805 253.7l61.9 10.9.2 5z" class="K"/><path d="M425.3 310.7h0c-.5-.6-1-1.1-1.6-1.6-22.4-21.9-50.8-1.5-39.1 11.7 6.2 7 14.8 3.1 14.8 3.1s-7.8 6-3 14.4c5 8.9 14.2 5.6 14.2 5.6s-2.8 2.5-3.7 6.2c-.2.9-.3 1.9-.2 3 .1 1.7.8 3.6 2.2 5.5 5.8 8 14.5 3.7 16.4 2 .4-.3 1-.9 1.7-1.7 1.2-1.2 2.6-3 4.1-5.2 2.3-3.5 4.5-8 5.3-13.5.2-1.5.3-3 .3-4.7-.1-7.1-2.9-15.3-10.6-24.2-.3 0-.5-.3-.8-.6z"/><path d="M867.1 269.6h0a39.08 39.08 0 0 0-.3-4.9l75.4 13.3 6.6 12.4-81.7-20.8z" class="H I"/><path d="M830.4 199l-.8 2.1-8 2.5z" class="J"/><path d="M948.9 162.7l-119.3 38.4.8-2.1 99.3-51.9z" class="H I"/><path d="M823.4 163.6l-60.5 61 55.4-74.9z" class="J"/><path d="M897.8 88.5l-74.4 75.1-5.1-13.9L869 81.3z" class="H I"/><path d="M808.5 123.3l-38.6 50.8 32-62.3c2.1 1.5 3.8 3.6 4.7 6l1.9 5.5z" class="J"/><path d="M825.1 101.4l-16.6 21.9-2-5.4c-.9-2.5-2.5-4.6-4.7-6l6.1-12 17.2 1.5z" class="H I"/><path d="M745 88.1l-7 106.2-10.9-113.5z" class="J"/><path d="M747.3 54.2L745 88.1l-17.9-7.3-1.8-18.8z" class="H I"/><path d="M717.8 211l-1.5-.6-42.5-69 6.1-14.6z" class="J"/><path d="M649 58.4l30.9 68.4-6.1 14.6-39.3-63.9zm71.9 159.4l-4.6-7.4 1.5.6h.1z" class="I H"/><path d="M680.6 202.6l-.9 2.3-21.9-24.5 2.1-5.1z" class="J"/><path d="M612 111.9l47.9 63.4-2.1 5.1-48.6-54.6zm85.2 112.7l-17.5-19.7.9-2.3z" class="I H"/></svg>